<?xml version="1.0" standalone="no"?>
<!DOCTYPE svg PUBLIC "-//W3C//DTD SVG 20010904//EN"
 "http://www.w3.org/TR/2001/REC-SVG-20010904/DTD/svg10.dtd">
<svg version="1.0" xmlns="http://www.w3.org/2000/svg"
 width="1300.000000pt" height="1392.000000pt" viewBox="0 0 1300.000000 1392.000000"
 preserveAspectRatio="xMidYMid meet">

<g transform="translate(0.000000,1392.000000) scale(0.100000,-0.100000)"
fill="#000000" stroke="none">
<path d="M5790 12549 c-952 -98 -1745 -424 -2506 -1031 -282 -224 -603 -540
-894 -878 -36 -41 -67 -77 -70 -80 -3 -3 -58 -66 -123 -142 -197 -229 -386
-387 -622 -518 -170 -95 -299 -195 -448 -347 -145 -148 -177 -202 -177 -296 0
-196 245 -430 705 -674 83 -44 175 -97 205 -117 30 -20 92 -55 138 -77 l83
-41 -48 -51 c-59 -62 -175 -218 -227 -304 -67 -112 -153 -305 -195 -438 -182
-571 -137 -1193 126 -1747 l46 -96 -31 -189 c-63 -377 -88 -625 -98 -972 l-7
-217 31 -109 31 -110 -8 -215 c-4 -118 -9 -334 -12 -480 -12 -757 5 -3290 23
-3348 10 -34 50 -62 88 -62 12 0 35 14 52 31 l31 30 -6 612 c-14 1259 -18
2363 -10 2687 l8 335 54 -103 c153 -295 410 -610 716 -880 254 -223 456 -366
1402 -987 109 -71 278 -187 377 -258 98 -70 180 -127 181 -125 1 2 8 81 15
176 7 96 15 196 19 223 l6 49 91 -108 c328 -387 690 -724 1109 -1031 196 -145
644 -443 827 -552 l46 -28 89 51 c561 322 1112 801 1547 1346 36 46 66 80 66
74 0 -5 -18 -85 -40 -177 -23 -92 -38 -170 -36 -172 14 -14 758 499 1028 708
768 597 1256 1190 1554 1889 l54 125 0 -120 c0 -66 3 -181 5 -255 16 -471 30
-1432 30 -2070 -1 -696 -9 -1006 -34 -1284 -11 -114 -1 -151 45 -173 41 -20
78 -11 105 27 39 53 61 523 63 1320 1 584 -10 1501 -19 1645 -2 39 -7 234 -10
435 -3 201 -8 516 -11 700 -6 334 -5 335 20 445 l26 110 -42 392 -41 392 43
67 c70 112 185 355 228 486 50 151 85 295 109 448 24 160 24 510 0 670 -67
434 -235 803 -504 1107 l-73 82 112 58 c283 144 509 335 590 498 60 119 96
359 68 452 -5 18 -15 50 -21 71 -35 118 -118 230 -235 314 -43 32 -133 97
-199 144 -298 215 -496 397 -810 742 -154 169 -606 607 -855 828 -799 709
-1332 983 -2080 1069 -416 48 -1336 61 -1700 24z m1550 -43 c575 -57 936 -172
1355 -431 366 -226 683 -486 1256 -1032 252 -239 367 -357 592 -605 197 -217
409 -401 692 -602 222 -157 267 -196 318 -272 93 -141 118 -299 78 -484 -39
-177 -123 -300 -295 -434 -82 -64 -253 -176 -268 -176 -5 0 33 42 84 93 277
275 362 549 247 791 -48 102 -149 206 -330 338 -138 100 -234 189 -769 713
-650 636 -1155 1014 -1735 1300 -553 273 -1163 437 -1810 486 -193 15 -708 15
-895 0 -1042 -82 -1811 -402 -2540 -1057 -147 -132 -425 -412 -712 -719 -377
-403 -588 -599 -839 -775 -193 -136 -311 -276 -353 -419 -46 -158 11 -342 162
-518 24 -29 41 -53 36 -53 -4 0 -40 19 -78 42 -252 148 -447 318 -504 439 -63
132 -40 218 93 359 167 175 265 255 443 359 255 149 467 314 593 462 614 715
898 995 1339 1321 392 290 824 517 1265 664 366 122 658 181 1120 228 22 2
321 3 665 1 491 -2 660 -6 790 -19z m-1715 -751 c92 -45 138 -133 134 -259
l-2 -70 80 -65 c45 -36 129 -106 187 -154 96 -79 312 -227 333 -227 5 0 81 41
168 91 88 50 216 119 285 154 69 34 138 75 153 91 32 31 57 82 82 164 62 202
136 280 265 280 73 -1 170 -72 186 -136 9 -34 -1 -104 -24 -186 -11 -37 -17
-69 -15 -72 3 -2 17 0 33 4 62 18 168 -27 233 -99 61 -68 67 -134 19 -228 -42
-80 -137 -133 -241 -133 -48 0 -172 29 -208 48 -18 10 -54 -3 -249 -89 -267
-117 -314 -140 -314 -150 0 -5 51 -42 114 -83 63 -41 150 -102 193 -136 128
-102 136 -104 358 -102 152 2 200 -1 241 -14 138 -43 185 -165 101 -261 -46
-52 -97 -71 -227 -83 -63 -6 -116 -13 -119 -15 -2 -3 4 -14 14 -25 43 -48 8
-189 -63 -251 -52 -46 -92 -59 -176 -59 -189 0 -293 106 -284 291 l3 72 -185
157 c-183 155 -355 280 -385 280 -8 0 -81 -36 -163 -81 -81 -44 -211 -111
-289 -149 -204 -101 -213 -110 -273 -293 -33 -103 -69 -159 -133 -211 -31 -25
-49 -31 -102 -34 -86 -6 -145 22 -186 86 -36 57 -36 89 -4 207 14 49 25 91 25
92 0 1 -24 1 -53 0 -69 -1 -150 37 -205 97 -72 78 -75 159 -12 251 78 114 215
142 395 80 l71 -25 109 46 c341 142 445 188 445 198 0 2 -51 37 -112 76 -62
40 -154 103 -203 140 -149 111 -130 105 -360 102 -216 -2 -265 5 -330 49 -45
31 -65 68 -65 121 0 99 84 171 213 182 177 16 185 19 150 58 -25 28 -20 109
12 173 46 96 129 138 253 131 53 -3 89 -12 127 -31z m-2930 -1910 c165 -43
329 -165 505 -375 l40 -47 -142 -162 -141 -162 -29 28 c-44 42 -142 192 -183
280 -59 129 -58 128 -92 131 -38 4 -58 -25 -50 -68 9 -40 79 -185 126 -258 23
-34 41 -65 41 -67 0 -3 -24 -5 -53 -5 -29 0 -107 -7 -172 -15 -66 -8 -123 -15
-127 -15 -4 0 -15 -11 -24 -25 -15 -23 -15 -27 1 -51 l17 -27 102 9 c135 12
295 10 329 -4 l28 -12 -147 -167 c-81 -93 -150 -169 -154 -171 -10 -4 -144
139 -221 235 -179 225 -269 459 -241 623 30 168 132 281 295 325 70 19 219 19
292 0z m7860 -103 c120 -57 200 -163 225 -300 26 -148 -42 -361 -186 -578 -69
-103 -187 -249 -202 -249 -6 0 -86 65 -176 145 -146 128 -163 147 -149 158 35
25 93 34 268 38 152 4 182 7 193 21 16 22 15 35 -2 59 -12 15 -30 20 -100 24
-48 3 -132 2 -189 -1 -56 -3 -103 -5 -105 -3 -2 1 14 35 36 76 43 77 102 235
102 271 0 28 -28 57 -55 57 -30 0 -48 -25 -69 -94 -28 -92 -81 -203 -139 -288
-28 -43 -54 -78 -57 -78 -3 0 -57 46 -120 103 -64 56 -137 121 -164 144 l-48
42 91 115 c165 207 287 303 451 353 64 20 93 23 200 20 117 -2 129 -5 195 -35z
m-3540 -397 c863 -41 1431 -114 2025 -260 99 -24 467 -139 477 -148 1 -1 -87
-2 -195 -3 -206 0 -351 -16 -507 -55 -614 -152 -1079 -556 -1318 -1144 -242
-594 -215 -1262 73 -1836 263 -522 753 -917 1350 -1088 127 -37 320 -75 455
-92 143 -18 486 -15 615 4 57 9 106 14 108 13 5 -6 -246 -189 -356 -260 -518
-336 -1167 -605 -1742 -721 -224 -45 -417 -78 -705 -120 l-230 -33 -308 194
c-170 108 -315 198 -322 200 -7 3 -131 -82 -274 -190 l-260 -196 -138 10
c-998 73 -1979 448 -2738 1048 -68 53 -122 98 -121 99 1 1 44 -5 96 -14 122
-22 540 -24 680 -5 398 57 722 171 1024 361 529 333 876 879 962 1516 19 143
22 418 4 560 -90 753 -539 1370 -1185 1628 -239 95 -447 136 -733 144 -106 3
-191 7 -189 9 6 6 346 106 473 139 482 125 1075 217 1579 245 105 6 215 12
245 14 122 7 874 -5 1155 -19z m-3130 -575 c629 -58 1124 -391 1405 -945 63
-125 140 -346 169 -486 72 -348 50 -719 -61 -1054 -242 -735 -861 -1225 -1694
-1344 -422 -60 -788 -22 -1062 111 -78 38 -89 48 -190 165 -217 254 -397 512
-513 737 -66 126 -68 130 -75 98 -4 -18 -10 -34 -14 -37 -9 -6 -83 222 -109
335 -91 396 -73 791 53 1173 95 289 241 523 457 732 109 105 281 235 312 235
8 0 21 8 28 17 19 23 193 104 315 146 285 99 671 145 979 117z m5580 -20 c435
-28 766 -128 903 -275 19 -19 40 -35 48 -35 27 0 210 -146 231 -185 10 -17 14
-18 53 -5 l43 14 86 -90 c211 -220 363 -509 450 -849 74 -296 75 -685 1 -1001
-40 -173 -151 -474 -183 -499 -7 -5 -30 -38 -51 -73 -99 -163 -296 -412 -451
-568 -80 -81 -102 -97 -205 -147 -218 -108 -387 -141 -710 -142 -228 0 -315 8
-505 46 -652 131 -1155 495 -1434 1038 -316 615 -291 1373 65 1959 286 472
786 770 1361 811 65 4 123 9 128 10 6 0 82 -4 170 -9z"/>
<path d="M6284 6385 c-281 -43 -468 -169 -490 -328 -3 -23 -2 -59 4 -79 10
-36 10 -36 -44 -73 -143 -99 -276 -303 -320 -492 -24 -104 -16 -251 18 -325
71 -153 223 -241 408 -237 l85 2 6 -119 c11 -232 84 -377 226 -451 83 -44 142
-55 278 -54 215 1 345 38 415 117 72 82 114 224 132 444 l11 145 106 0 c95 0
112 3 168 29 139 64 233 217 233 382 0 244 -202 537 -446 647 -36 16 -40 22
-36 47 2 15 -3 53 -12 82 -40 137 -188 224 -451 263 -117 17 -181 18 -291 0z
m753 -575 c115 -66 229 -201 275 -326 32 -87 31 -194 -3 -259 -58 -114 -153
-138 -359 -90 -215 49 -265 56 -385 57 -152 2 -240 -16 -460 -94 -146 -52
-181 -61 -245 -62 -164 -2 -260 84 -260 234 1 167 124 394 270 495 l39 27 49
-43 c69 -61 147 -106 249 -142 82 -29 97 -31 223 -31 115 0 145 3 200 23 95
33 200 102 266 175 33 36 66 65 74 65 8 1 38 -13 67 -29z m-283 -815 c38 -8
71 -17 74 -20 10 -10 -17 -308 -33 -370 -36 -138 -75 -176 -199 -190 l-59 -7
7 59 c3 32 -1 132 -9 223 -8 91 -18 200 -22 243 l-6 77 89 0 c49 0 120 -7 158
-15z m-351 -80 c2 -38 12 -141 22 -228 13 -114 15 -175 9 -220 l-9 -62 -40 3
c-184 14 -255 127 -255 408 l0 101 98 31 c150 48 157 50 163 43 4 -3 9 -37 12
-76z"/>
<path d="M4650 7164 c-155 -40 -303 -155 -363 -282 -29 -61 -32 -76 -32 -162
0 -75 5 -108 23 -155 48 -126 171 -249 297 -297 48 -18 80 -23 160 -23 93 0
105 2 167 33 85 41 148 111 200 217 91 191 88 386 -9 533 -84 127 -266 183
-443 136z m6 -180 c12 -8 30 -31 39 -51 25 -51 14 -100 -30 -140 -29 -28 -42
-33 -84 -33 -143 0 -174 184 -41 239 30 12 84 5 116 -15z"/>
<path d="M8454 7266 c-80 -19 -181 -69 -251 -125 -185 -150 -221 -382 -88
-563 114 -156 385 -213 583 -123 73 33 161 124 200 206 42 88 55 155 50 259
-3 73 -9 98 -36 153 -40 81 -112 148 -190 177 -72 28 -187 34 -268 16z m-24
-101 c62 -32 80 -129 35 -184 -85 -100 -245 -25 -221 104 10 49 66 95 117 95
22 0 53 -7 69 -15z"/>
</g>
</svg>
